<mxfile host="app.diagrams.net" modified="2020-11-23T23:38:35.031Z" agent="5.0 (Windows NT 10.0; Win64; x64) AppleWebKit/537.36 (KHTML, like Gecko) Chrome/87.0.4280.66 Safari/537.36" etag="RfGg9uSHrnziwwgKu-4P" version="13.7.3" type="github">
  <diagram id="6Iaz9qzol81BbDnzQ4Gy" name="Page-1">
    <mxGraphModel dx="815" dy="466" grid="1" gridSize="10" guides="1" tooltips="1" connect="1" arrows="1" fold="1" page="1" pageScale="1" pageWidth="850" pageHeight="1100" math="0" shadow="0">
      <root>
        <mxCell id="0" />
        <mxCell id="1" parent="0" />
        <mxCell id="MaCd6JNh4quTzPaU6vPj-3" value="" style="edgeStyle=orthogonalEdgeStyle;rounded=0;orthogonalLoop=1;jettySize=auto;html=1;" edge="1" parent="1" source="MaCd6JNh4quTzPaU6vPj-1" target="MaCd6JNh4quTzPaU6vPj-2">
          <mxGeometry relative="1" as="geometry">
            <Array as="points">
              <mxPoint x="340" y="355" />
              <mxPoint x="340" y="355" />
            </Array>
          </mxGeometry>
        </mxCell>
        <mxCell id="MaCd6JNh4quTzPaU6vPj-1" value="INIT&lt;br&gt;&lt;span style=&quot;font-weight: 400&quot;&gt;E1 = 0 | E2 = 0&lt;/span&gt;&lt;br style=&quot;font-weight: 400&quot;&gt;&lt;span style=&quot;font-weight: 400&quot;&gt;E3 = 0 | E4 = 0 | E5 = 0&lt;/span&gt;&lt;br style=&quot;font-weight: 400&quot;&gt;&lt;span style=&quot;font-weight: 400&quot;&gt;R1 = 1 | R2 = 1&lt;/span&gt;" style="rounded=0;whiteSpace=wrap;html=1;fontStyle=1" vertex="1" parent="1">
          <mxGeometry x="130" y="320" width="140" height="70" as="geometry" />
        </mxCell>
        <mxCell id="MaCd6JNh4quTzPaU6vPj-5" value="" style="edgeStyle=orthogonalEdgeStyle;rounded=0;orthogonalLoop=1;jettySize=auto;html=1;" edge="1" parent="1" source="MaCd6JNh4quTzPaU6vPj-2" target="MaCd6JNh4quTzPaU6vPj-4">
          <mxGeometry relative="1" as="geometry" />
        </mxCell>
        <mxCell id="MaCd6JNh4quTzPaU6vPj-2" value="SETUP&lt;br&gt;&lt;span style=&quot;font-weight: 400&quot;&gt;E1 = 0 | E2 = 1&lt;/span&gt;&lt;br style=&quot;font-weight: 400&quot;&gt;&lt;span style=&quot;font-weight: 400&quot;&gt;E3 = 0 | E4 = 0 | E5 = 0&lt;/span&gt;&lt;br style=&quot;font-weight: 400&quot;&gt;&lt;span style=&quot;font-weight: 400&quot;&gt;R1 = 0 | R2 = 0&lt;/span&gt;&lt;span style=&quot;font-weight: normal&quot;&gt;&lt;br&gt;&lt;/span&gt;" style="rounded=0;whiteSpace=wrap;html=1;fontStyle=1" vertex="1" parent="1">
          <mxGeometry x="355" y="315" width="130" height="80" as="geometry" />
        </mxCell>
        <mxCell id="MaCd6JNh4quTzPaU6vPj-7" value="" style="edgeStyle=orthogonalEdgeStyle;rounded=0;orthogonalLoop=1;jettySize=auto;html=1;" edge="1" parent="1" source="MaCd6JNh4quTzPaU6vPj-4" target="MaCd6JNh4quTzPaU6vPj-6">
          <mxGeometry relative="1" as="geometry" />
        </mxCell>
        <mxCell id="MaCd6JNh4quTzPaU6vPj-9" value="" style="edgeStyle=orthogonalEdgeStyle;rounded=0;orthogonalLoop=1;jettySize=auto;html=1;" edge="1" parent="1" source="MaCd6JNh4quTzPaU6vPj-4" target="MaCd6JNh4quTzPaU6vPj-8">
          <mxGeometry relative="1" as="geometry" />
        </mxCell>
        <mxCell id="MaCd6JNh4quTzPaU6vPj-4" value="&lt;b&gt;PLAY&lt;/b&gt;&lt;br&gt;E1 = 1 | E2 = 0&lt;br&gt;E3 = 0 | E4 = 0 | E5 = 0&lt;br&gt;R1 = 0 | R2 = 0" style="rounded=0;whiteSpace=wrap;html=1;" vertex="1" parent="1">
          <mxGeometry x="310" y="440" width="220" height="70" as="geometry" />
        </mxCell>
        <mxCell id="MaCd6JNh4quTzPaU6vPj-17" value="" style="edgeStyle=orthogonalEdgeStyle;rounded=0;orthogonalLoop=1;jettySize=auto;html=1;entryX=0.5;entryY=0;entryDx=0;entryDy=0;" edge="1" parent="1" source="MaCd6JNh4quTzPaU6vPj-6" target="MaCd6JNh4quTzPaU6vPj-1">
          <mxGeometry relative="1" as="geometry">
            <mxPoint x="510" y="280" as="targetPoint" />
            <Array as="points">
              <mxPoint x="760" y="270" />
              <mxPoint x="200" y="270" />
            </Array>
          </mxGeometry>
        </mxCell>
        <mxCell id="MaCd6JNh4quTzPaU6vPj-6" value="RESULT&lt;br&gt;&lt;span style=&quot;font-weight: 400&quot;&gt;E1 = 0 | E2 = 0&lt;/span&gt;&lt;br style=&quot;font-weight: 400&quot;&gt;&lt;span style=&quot;font-weight: 400&quot;&gt;E3 = 1 | E4 = 0 | E5 = 1&lt;/span&gt;&lt;br style=&quot;font-weight: 400&quot;&gt;&lt;span style=&quot;font-weight: 400&quot;&gt;R1 = 0 | R2 = 0&lt;/span&gt;" style="rounded=0;whiteSpace=wrap;html=1;fontStyle=1" vertex="1" parent="1">
          <mxGeometry x="680" y="437.5" width="150" height="75" as="geometry" />
        </mxCell>
        <mxCell id="MaCd6JNh4quTzPaU6vPj-11" value="" style="edgeStyle=orthogonalEdgeStyle;rounded=0;orthogonalLoop=1;jettySize=auto;html=1;" edge="1" parent="1" source="MaCd6JNh4quTzPaU6vPj-8" target="MaCd6JNh4quTzPaU6vPj-10">
          <mxGeometry relative="1" as="geometry" />
        </mxCell>
        <mxCell id="MaCd6JNh4quTzPaU6vPj-8" value="&lt;b&gt;COUNT ROUND&lt;/b&gt;&lt;br&gt;E1 = 0 | E2 = 0&lt;br&gt;E3 = 0 | E4 = 1 | E5 = 0&lt;br&gt;R1 = 0 | R2 = 0" style="rounded=0;whiteSpace=wrap;html=1;" vertex="1" parent="1">
          <mxGeometry x="320" y="555" width="200" height="70" as="geometry" />
        </mxCell>
        <mxCell id="MaCd6JNh4quTzPaU6vPj-13" value="" style="edgeStyle=orthogonalEdgeStyle;rounded=0;orthogonalLoop=1;jettySize=auto;html=1;entryX=0.5;entryY=1;entryDx=0;entryDy=0;" edge="1" parent="1" source="MaCd6JNh4quTzPaU6vPj-10" target="MaCd6JNh4quTzPaU6vPj-6">
          <mxGeometry relative="1" as="geometry">
            <mxPoint x="380" y="595" as="targetPoint" />
          </mxGeometry>
        </mxCell>
        <mxCell id="MaCd6JNh4quTzPaU6vPj-15" value="" style="edgeStyle=orthogonalEdgeStyle;rounded=0;orthogonalLoop=1;jettySize=auto;html=1;" edge="1" parent="1" source="MaCd6JNh4quTzPaU6vPj-10" target="MaCd6JNh4quTzPaU6vPj-14">
          <mxGeometry relative="1" as="geometry" />
        </mxCell>
        <mxCell id="MaCd6JNh4quTzPaU6vPj-10" value="&lt;b&gt;CHECK&lt;br&gt;&lt;/b&gt;E1 = 0 | E2 = 0&lt;br&gt;E3 = 1 | E4 = 0 | E5 = 0&lt;br&gt;R1 = 0 | R2 = 0&lt;b&gt;&lt;br&gt;&lt;br&gt;&lt;/b&gt;" style="rounded=0;whiteSpace=wrap;html=1;" vertex="1" parent="1">
          <mxGeometry x="325" y="665" width="190" height="75" as="geometry" />
        </mxCell>
        <mxCell id="MaCd6JNh4quTzPaU6vPj-19" value="" style="edgeStyle=orthogonalEdgeStyle;rounded=0;orthogonalLoop=1;jettySize=auto;html=1;entryX=0;entryY=0.5;entryDx=0;entryDy=0;exitX=0;exitY=0.5;exitDx=0;exitDy=0;" edge="1" parent="1" source="MaCd6JNh4quTzPaU6vPj-14" target="MaCd6JNh4quTzPaU6vPj-4">
          <mxGeometry relative="1" as="geometry">
            <mxPoint x="330" y="755" as="sourcePoint" />
            <mxPoint x="300" y="685" as="targetPoint" />
            <Array as="points">
              <mxPoint x="250" y="815" />
              <mxPoint x="250" y="475" />
            </Array>
          </mxGeometry>
        </mxCell>
        <mxCell id="MaCd6JNh4quTzPaU6vPj-14" value="&lt;b&gt;WAIT&lt;br&gt;&lt;/b&gt;E1 = 0 | E2 = 0&lt;br&gt;E3 = 0 | E4 = 0 | E5 = 0&lt;br&gt;R1 = 1 | R2 = 0&lt;b&gt;&lt;br&gt;&lt;/b&gt;" style="rounded=0;whiteSpace=wrap;html=1;" vertex="1" parent="1">
          <mxGeometry x="320" y="795" width="200" height="80" as="geometry" />
        </mxCell>
        <mxCell id="MaCd6JNh4quTzPaU6vPj-21" value="Enter" style="text;html=1;strokeColor=none;fillColor=none;align=center;verticalAlign=middle;whiteSpace=wrap;rounded=0;fontStyle=1" vertex="1" parent="1">
          <mxGeometry x="280" y="330" width="40" height="20" as="geometry" />
        </mxCell>
        <mxCell id="MaCd6JNh4quTzPaU6vPj-22" value="Enter" style="text;html=1;strokeColor=none;fillColor=none;align=center;verticalAlign=middle;whiteSpace=wrap;rounded=0;fontStyle=1" vertex="1" parent="1">
          <mxGeometry x="420" y="410" width="40" height="20" as="geometry" />
        </mxCell>
        <mxCell id="MaCd6JNh4quTzPaU6vPj-23" value="&lt;font style=&quot;font-size: 10px&quot;&gt;Enter &amp;amp; end_time&#39;&lt;/font&gt;" style="text;html=1;strokeColor=none;fillColor=none;align=center;verticalAlign=middle;whiteSpace=wrap;rounded=0;fontStyle=1" vertex="1" parent="1">
          <mxGeometry x="420" y="525" width="90" height="20" as="geometry" />
        </mxCell>
        <mxCell id="MaCd6JNh4quTzPaU6vPj-24" value="&lt;span style=&quot;font-size: 10px&quot;&gt;end_time&lt;/span&gt;" style="text;html=1;strokeColor=none;fillColor=none;align=center;verticalAlign=middle;whiteSpace=wrap;rounded=0;fontStyle=1" vertex="1" parent="1">
          <mxGeometry x="570" y="455" width="80" height="20" as="geometry" />
        </mxCell>
        <mxCell id="MaCd6JNh4quTzPaU6vPj-25" value="&lt;font style=&quot;font-size: 10px&quot;&gt;sw_erro + end_round + end_game&lt;/font&gt;" style="text;html=1;strokeColor=none;fillColor=none;align=center;verticalAlign=middle;whiteSpace=wrap;rounded=0;fontStyle=1" vertex="1" parent="1">
          <mxGeometry x="550" y="665" width="170" height="20" as="geometry" />
        </mxCell>
        <mxCell id="MaCd6JNh4quTzPaU6vPj-26" value="&lt;font style=&quot;font-size: 10px&quot;&gt;(sw_erro + end_round + end_game)&#39;&lt;/font&gt;" style="text;html=1;strokeColor=none;fillColor=none;align=center;verticalAlign=middle;whiteSpace=wrap;rounded=0;fontStyle=1" vertex="1" parent="1">
          <mxGeometry x="420" y="755" width="190" height="20" as="geometry" />
        </mxCell>
        <mxCell id="MaCd6JNh4quTzPaU6vPj-27" value="Enter" style="text;html=1;strokeColor=none;fillColor=none;align=center;verticalAlign=middle;whiteSpace=wrap;rounded=0;fontStyle=1" vertex="1" parent="1">
          <mxGeometry x="200" y="615" width="40" height="20" as="geometry" />
        </mxCell>
        <mxCell id="MaCd6JNh4quTzPaU6vPj-28" value="Enter" style="text;html=1;strokeColor=none;fillColor=none;align=center;verticalAlign=middle;whiteSpace=wrap;rounded=0;fontStyle=1" vertex="1" parent="1">
          <mxGeometry x="770" y="370" width="40" height="20" as="geometry" />
        </mxCell>
        <mxCell id="MaCd6JNh4quTzPaU6vPj-48" value="" style="edgeStyle=orthogonalEdgeStyle;rounded=0;orthogonalLoop=1;jettySize=auto;html=1;" edge="1" parent="1">
          <mxGeometry relative="1" as="geometry">
            <mxPoint x="50" y="360" as="sourcePoint" />
            <mxPoint x="130" y="360" as="targetPoint" />
          </mxGeometry>
        </mxCell>
        <mxCell id="MaCd6JNh4quTzPaU6vPj-49" value="KEY(0)" style="text;html=1;align=center;verticalAlign=middle;resizable=0;points=[];autosize=1;fontStyle=1" vertex="1" parent="1">
          <mxGeometry x="60" y="340" width="50" height="20" as="geometry" />
        </mxCell>
      </root>
    </mxGraphModel>
  </diagram>
</mxfile>
